<?xml version="1.0" encoding="utf-8"?>
<!-- Generator: Adobe Illustrator 22.0.1, SVG Export Plug-In . SVG Version: 6.00 Build 0)  -->
<svg version="1.1" id="Layer_1" xmlns="http://www.w3.org/2000/svg" xmlns:xlink="http://www.w3.org/1999/xlink" x="0px" y="0px"
	 viewBox="0 0 40 40" style="enable-background:new 0 0 40 40;" xml:space="preserve">
<style type="text/css">
	.st0{fill:#FFFFFF;}
</style>
<title>evil2</title>
<path class="st0" d="M40,2.5c0-1.8-0.4-3.5-1-5c-1.3,3-3.8,5.4-6.8,6.6C28.8,1.5,24.6,0,20,0S11.2,1.5,7.9,4.1
	C4.8,2.9,2.4,0.5,1-2.5C0.4-1,0,0.7,0,2.5C0,5.4,1,8,2.6,10.1C0.9,13,0,16.4,0,20c0,11,9,20,20,20s20-9,20-20c0-3.6-0.9-7-2.6-9.9
	C39,8,40,5.4,40,2.5z M22.5,14.9c0.1-1.9,1.8-3.1,3.2-3.8c1.4-0.7,2.7-1,2.8-1c0.7-0.2,1.3,0.2,1.5,0.9s-0.2,1.3-0.9,1.5
	c-0.7,0.2-1.5,0.5-2.2,0.8c0.4,0.4,0.7,1,0.7,1.7c0,1.4-1.1,2.5-2.5,2.5s-2.5-1.1-2.5-2.5C22.5,15,22.5,14.9,22.5,14.9L22.5,14.9z
	 M10,10.9c0.2-0.7,0.8-1.1,1.5-0.9c0.1,0,1.4,0.4,2.8,1c1.4,0.7,3.1,1.9,3.2,3.8c0,0,0,0.1,0,0.1c0,1.4-1.1,2.5-2.5,2.5
	s-2.5-1.1-2.5-2.5c0-0.7,0.3-1.3,0.7-1.7c-0.7-0.4-1.5-0.7-2.2-0.8C10.3,12.3,9.9,11.6,10,10.9L10,10.9z M20,32.5
	c-4.6,0-8.5-2.4-10.7-6.1l3.2-1.9c1.5,2.5,4.3,4.2,7.5,4.2s6-1.7,7.5-4.2l3.2,1.9C28.5,30.1,24.6,32.5,20,32.5z"/>
</svg>
