<?xml version="1.0" encoding="utf-8"?>
<!-- Generator: Adobe Illustrator 22.0.1, SVG Export Plug-In . SVG Version: 6.00 Build 0)  -->
<svg version="1.1" id="Layer_1" xmlns="http://www.w3.org/2000/svg" xmlns:xlink="http://www.w3.org/1999/xlink" x="0px" y="0px"
	 viewBox="0 0 31 40" style="enable-background:new 0 0 31 40;" xml:space="preserve">
<style type="text/css">
	.st0{fill:#FFFFFF;}
</style>
<title>user-secret</title>
<path class="st0" d="M12.9,34.3l2.1-10l-2.1-2.9L10,20L12.9,34.3z M18.6,34.3L21.4,20l-2.9,1.4l-2.1,2.9L18.6,34.3z M22.1,11.7
	c0,0,0-0.1-0.1-0.1c-0.2-0.2-1.8-0.2-2.1-0.2c-1.3,0-2.5,0.2-3.7,0.4c-0.2,0-0.3,0-0.5,0s-0.3,0-0.5,0c-1.2-0.2-2.5-0.4-3.7-0.4
	c-0.3,0-1.9,0-2.1,0.2c0,0-0.1,0.1-0.1,0.1c0,0.2,0,0.4,0.1,0.6c0.1,0.2,0.2,0.1,0.3,0.4c0.6,1.6,0.8,2.8,2.9,2.8
	c2.9,0,2.1-2.7,3-2.7h0.3c0.9,0,0.1,2.7,3,2.7c2,0,2.3-1.2,2.9-2.8c0.1-0.3,0.2-0.2,0.3-0.4C22.1,12.1,22.1,11.9,22.1,11.7
	L22.1,11.7z M31.4,31.4c0,3.6-2.4,5.8-6,5.8H6c-3.6,0-6-2.1-6-5.8c0-4,0.7-10.2,4.9-12.2l-2-4.9h4.8c-0.3-0.9-0.5-1.9-0.5-2.9
	c0-0.2,0-0.5,0-0.7c-0.9-0.2-4.3-0.9-4.3-2.1c0-1.3,3.8-2,4.7-2.2C8,4.7,9.1,2.1,10.3,0.8C10.7,0.3,11.3,0,12,0
	c1.3,0,2.4,1.4,3.8,1.4S18.1,0,19.5,0c0.7,0,1.2,0.3,1.7,0.8c1.1,1.3,2.3,3.9,2.7,5.5c0.9,0.2,4.7,0.9,4.7,2.2c0,1.2-3.5,2-4.3,2.1
	c0.1,1.2,0,2.4-0.4,3.6h4.8l-1.8,5C30.7,21.4,31.4,27.4,31.4,31.4L31.4,31.4z"/>
</svg>
