<?xml version="1.0" encoding="utf-8"?>
<!-- Generator: Adobe Illustrator 22.0.1, SVG Export Plug-In . SVG Version: 6.00 Build 0)  -->
<svg version="1.1" id="Layer_1" xmlns="http://www.w3.org/2000/svg" xmlns:xlink="http://www.w3.org/1999/xlink" x="0px" y="0px"
	 viewBox="0 0 40 40" style="enable-background:new 0 0 40 40;" xml:space="preserve">
<style type="text/css">
	.st0{fill:#FFFFFF;}
</style>
<title>target</title>
<path class="st0" d="M20,10c-5.5,0-10,4.5-10,10s4.5,10,10,10s10-4.5,10-10S25.5,10,20,10z M20,27.5c-4.1,0-7.5-3.4-7.5-7.5
	s3.4-7.5,7.5-7.5s7.5,3.4,7.5,7.5S24.1,27.5,20,27.5z M20,0C9,0,0,9,0,20s9,20,20,20s20-9,20-20S31,0,20,0z M20,35
	c-8.3,0-15-6.7-15-15S11.7,5,20,5s15,6.7,15,15S28.3,35,20,35z M20,16.2c-2.1,0-3.8,1.7-3.8,3.8s1.7,3.8,3.8,3.8s3.8-1.7,3.8-3.8
	S22.1,16.2,20,16.2z"/>
</svg>
