<?xml version="1.0" encoding="utf-8"?>
<!-- Generator: Adobe Illustrator 22.0.1, SVG Export Plug-In . SVG Version: 6.00 Build 0)  -->
<svg version="1.1" id="Layer_1" xmlns="http://www.w3.org/2000/svg" xmlns:xlink="http://www.w3.org/1999/xlink" x="0px" y="0px"
	 viewBox="0 0 40 40" style="enable-background:new 0 0 40 40;" xml:space="preserve">
<style type="text/css">
	.st0{fill:#FFFFFF;}
</style>
<title>chat-bubble-dots</title>
<path class="st0" d="M20,30l-8,8v-8H4c-2.2,0-4-1.8-4-4l0,0V6c0-2.2,1.8-4,4-4h32c2.2,0,4,1.8,4,4l0,0v20c0,2.2-1.8,4-4,4l0,0H20z
	 M10,14v4h4v-4H10z M18,14v4h4v-4H18z M26,14v4h4v-4H26z"/>
</svg>
