<?xml version="1.0" encoding="utf-8"?>
<!-- Generator: Adobe Illustrator 22.0.1, SVG Export Plug-In . SVG Version: 6.00 Build 0)  -->
<svg version="1.1" id="Layer_1" xmlns="http://www.w3.org/2000/svg" xmlns:xlink="http://www.w3.org/1999/xlink" x="0px" y="0px"
	 viewBox="0 0 29 40" style="enable-background:new 0 0 29 40;" xml:space="preserve">
<style type="text/css">
	.st0{fill:#FFFFFF;}
</style>
<title>user</title>
<path class="st0" d="M28.6,31.2c0,3.3-2.1,5.9-4.8,5.9H4.8c-2.6,0-4.8-2.7-4.8-5.9c0-5.9,1.5-12.7,7.3-12.7c1.8,1.8,4.3,2.9,7,2.9
	s5.2-1.1,7-2.9C27.1,18.6,28.6,25.4,28.6,31.2L28.6,31.2z M22.9,11.4c0,4.7-3.8,8.6-8.6,8.6s-8.6-3.8-8.6-8.6s3.8-8.6,8.6-8.6
	S22.9,6.7,22.9,11.4z"/>
</svg>
