<?xml version="1.0" encoding="utf-8"?>
<!-- Generator: Adobe Illustrator 22.0.1, SVG Export Plug-In . SVG Version: 6.00 Build 0)  -->
<svg version="1.1" id="Layer_1" xmlns="http://www.w3.org/2000/svg" xmlns:xlink="http://www.w3.org/1999/xlink" x="0px" y="0px"
	 viewBox="0 0 40 40" style="enable-background:new 0 0 40 40;" xml:space="preserve">
<style type="text/css">
	.st0{fill:#FFFFFF;}
</style>
<title>timer</title>
<path class="st0" d="M32.6,14.2c2.1,2.7,3.3,6.1,3.3,9.8c0,8.8-7.2,16-16,16S4,32.8,4,24c0-8.1,6.1-14.9,13.9-15.9l0.1,0V4h4v4.1
	c2.9,0.4,5.6,1.5,7.8,3.2l2.9-2.9l2.8,2.8L32.6,14.2L32.6,14.2z M20,36c6.6,0,12-5.4,12-12s-5.4-12-12-12l0,0c-6.6,0-12,5.4-12,12
	S13.4,36,20,36L20,36z M14,0h12v4H14V0z M24.2,16.9l2.8,2.8l-7.1,7L17.2,24L24.2,16.9z"/>
</svg>
