<?xml version="1.0" encoding="utf-8"?>
<!-- Generator: Adobe Illustrator 22.0.1, SVG Export Plug-In . SVG Version: 6.00 Build 0)  -->
<svg version="1.1" id="Layer_1" xmlns="http://www.w3.org/2000/svg" xmlns:xlink="http://www.w3.org/1999/xlink" x="0px" y="0px"
	 viewBox="0 0 40 40" style="enable-background:new 0 0 40 40;" xml:space="preserve">
<style type="text/css">
	.st0{fill:#FFFFFF;}
</style>
<title>warning</title>
<path class="st0" d="M20,3.6L36.8,37H3.2C3.2,37,20,3.6,20,3.6z M20,0c-0.9,0-1.7,0.6-2.4,1.7l-17.1,34C-0.8,38.1,0.4,40,3,40h34
	c2.7,0,3.8-1.9,2.5-4.2l0,0l-17.1-34C21.7,0.6,20.9,0,20,0L20,0L20,0z"/>
<path class="st0" d="M22.5,32.5c0,1.4-1.1,2.5-2.5,2.5s-2.5-1.1-2.5-2.5S18.6,30,20,30S22.5,31.1,22.5,32.5z"/>
<path class="st0" d="M20,27.5c-1.4,0-2.5-1.1-2.5-2.5v-7.5c0-1.4,1.1-2.5,2.5-2.5s2.5,1.1,2.5,2.5V25C22.5,26.4,21.4,27.5,20,27.5z"
	/>
</svg>
